<svg xmlns="http://www.w3.org/2000/svg" width="237" height="115" viewBox="0 0 237 115" fill="none">
  <path d="M76.7 83.9C76.1667 83.9 75.8333 83.8333 75.7 83.7 75.5667 83.5 75.5 83.2 75.5 82.8V28.5L53.8 82.6C53.6667 82.9333 53.5 83.1333 53.3 83.2 53.1667 83.2667 52.7667 83.3 52.1 83.3H44.1C43.4333 83.3 43 83.2667 42.8 83.2 42.6667 83.1333 42.5333 82.9333 42.4 82.6L20.7 28.5V82.8C20.7 83.2 20.6333 83.5 20.5 83.7 20.3667 83.8333 20.0333 83.9 19.5 83.9H10.2C9.4 83.9 9 83.5333 9 82.8V10.6C9 9.66666 9.1 9.1 9.3 8.9 9.5 8.63333 10.1333 8.49999 11.2 8.49999H23.1C23.5667 8.49999 23.8333 8.6 23.9 8.8 24.0333 8.93333 24.2 9.23333 24.4 9.7L48.1 68.5 71.8 9.7C72 9.23333 72.1333 8.93333 72.2 8.8 72.3333 8.6 72.6333 8.49999 73.1 8.49999H85C86.0667 8.49999 86.7 8.63333 86.9 8.9 87.1 9.1 87.2 9.66666 87.2 10.6V82.8C87.2 83.5333 86.8 83.9 86 83.9H76.7ZM136.175 82.7C136.175 83.5 135.775 83.9 134.975 83.9H126.075C125.275 83.9 124.875 83.5 124.875 82.7V52.5L98.475 9.8C98.0083 8.93333 98.3083 8.49999 99.375 8.49999H109.475C110.142 8.49999 110.575 8.7 110.775 9.1L130.575 41.2 150.475 9.1C150.675 8.7 151.108 8.49999 151.775 8.49999H161.875C162.942 8.49999 163.242 8.93333 162.775 9.8L136.175 52.6V82.7Z" style="fill:#6F347D;opacity:0.5"/>
  <path d="M62.108 100.42C60.992 101.371 59.7107 102.197 58.264 102.9 56.8173 103.561 55.288 104.119 53.676 104.574 52.1053 105.029 50.452 105.38 48.716 105.628 47.0213 105.835 45.3473 105.938 43.694 105.938H35.882C35.4273 105.938 35.076 105.917 34.828 105.876 34.58 105.835 34.394 105.752 34.27 105.628 34.146 105.504 34.0633 105.318 34.022 105.07 34.022 104.822 34.022 104.471 34.022 104.016V60.306C34.022 59.81 34.022 59.4173 34.022 59.128 34.0633 58.8387 34.146 58.632 34.27 58.508 34.394 58.384 34.58 58.3013 34.828 58.26 35.1173 58.2187 35.51 58.198 36.006 58.198H46.732C54.668 58.198 60.682 60.5333 64.774 65.204 66.51 67.2293 67.7913 69.5853 68.618 72.272 69.486 74.9587 69.92 78.1827 69.92 81.944 69.92 85.8293 69.238 89.384 67.874 92.608 66.5513 95.7907 64.6293 98.3947 62.108 100.42ZM58.326 70.536C57.1273 69.0067 55.536 67.8287 53.552 67.002 51.6093 66.1753 49.274 65.762 46.546 65.762H42.454V98.312H44.5C46.9387 98.312 49.1913 97.9607 51.258 97.258 53.3247 96.5553 55.102 95.5013 56.59 94.096 58.078 92.6907 59.2353 90.9753 60.062 88.95 60.93 86.8833 61.364 84.486 61.364 81.758 61.364 76.922 60.3513 73.1813 58.326 70.536ZM78.9449 105.938C78.4902 105.938 78.1595 105.855 77.9529 105.69 77.7875 105.525 77.7049 105.194 77.7049 104.698V59.438C77.7049 58.6113 78.1182 58.198 78.9449 58.198H84.8969C85.7235 58.198 86.1369 58.6113 86.1369 59.438V104.698C86.1369 105.194 86.0335 105.525 85.8269 105.69 85.6615 105.855 85.3515 105.938 84.8969 105.938H78.9449ZM127.069 105.938C126.614 105.938 126.263 105.897 126.015 105.814 125.767 105.69 125.539 105.38 125.333 104.884L121.427 94.654H102.145L98.2385 104.884C98.0318 105.38 97.8045 105.69 97.5565 105.814 97.3498 105.897 97.0192 105.938 96.5645 105.938H90.5505C89.8892 105.938 89.4552 105.835 89.2485 105.628 89.0418 105.38 89.0625 104.967 89.3105 104.388L107.353 59.252C107.642 58.5493 108.138 58.198 108.841 58.198H114.855C115.392 58.198 115.743 58.2807 115.909 58.446 116.074 58.57 116.26 58.8593 116.467 59.314L134.385 104.388C134.633 105.008 134.653 105.421 134.447 105.628 134.281 105.835 133.847 105.938 133.145 105.938H127.069ZM105.059 87.028H118.513L111.817 69.482 105.059 87.028ZM164.055 105.938C163.559 105.938 163.229 105.897 163.063 105.814 162.939 105.69 162.774 105.401 162.567 104.946L153.763 87.276H148.059V104.636C148.059 105.215 147.977 105.587 147.811 105.752 147.646 105.876 147.336 105.938 146.881 105.938H140.867C140.454 105.938 140.144 105.876 139.937 105.752 139.731 105.587 139.627 105.215 139.627 104.636V59.438C139.627 58.942 139.731 58.6113 139.937 58.446 140.185 58.2807 140.475 58.198 140.805 58.198H153.267C155.582 58.198 157.669 58.4873 159.529 59.066 161.431 59.6447 163.043 60.5333 164.365 61.732 165.688 62.9307 166.701 64.4393 167.403 66.258 168.147 68.0353 168.519 70.164 168.519 72.644 168.519 75.62 167.879 78.162 166.597 80.27 165.316 82.3367 163.621 83.9693 161.513 85.168L171.557 104.326C171.888 104.946 172.012 105.38 171.929 105.628 171.847 105.835 171.495 105.938 170.875 105.938H164.055ZM148.059 65.824V79.712H152.213C154.693 79.712 156.615 79.154 157.979 78.038 159.343 76.8807 160.025 75.062 160.025 72.582 160.025 70.35 159.467 68.676 158.351 67.56 157.277 66.4027 155.871 65.824 154.135 65.824H148.059ZM177.576 105.938C177.121 105.938 176.79 105.855 176.584 105.69 176.418 105.525 176.336 105.194 176.336 104.698V59.438C176.336 58.6113 176.749 58.198 177.576 58.198H183.528C184.354 58.198 184.768 58.6113 184.768 59.438V104.698C184.768 105.194 184.664 105.525 184.458 105.69 184.292 105.855 183.982 105.938 183.528 105.938H177.576ZM228.055 99.862C226.113 102.301 223.819 104.099 221.173 105.256 218.528 106.413 215.531 106.992 212.183 106.992 208.463 106.992 205.26 106.331 202.573 105.008 199.928 103.644 197.737 101.825 196.001 99.552 194.307 97.2373 193.046 94.592 192.219 91.616 191.434 88.5987 191.041 85.4367 191.041 82.13 191.041 78.906 191.455 75.806 192.281 72.83 193.108 69.8127 194.389 67.1673 196.125 64.894 197.861 62.5793 200.052 60.74 202.697 59.376 205.343 58.012 208.505 57.33 212.183 57.33 215.821 57.33 218.962 58.0327 221.607 59.438 224.253 60.802 226.443 62.6413 228.179 64.956 229.915 67.2293 231.197 69.854 232.023 72.83 232.891 75.806 233.305 78.906 233.263 82.13 233.222 85.7673 232.788 89.074 231.961 92.05 231.135 94.9847 229.833 97.5887 228.055 99.862ZM212.183 65.018C210.034 65.018 208.174 65.514 206.603 66.506 205.074 67.4567 203.793 68.738 202.759 70.35 201.767 71.962 201.023 73.8013 200.527 75.868 200.073 77.8933 199.845 79.9807 199.845 82.13 199.845 84.2793 200.073 86.3873 200.527 88.454 201.023 90.4793 201.767 92.298 202.759 93.91 203.793 95.522 205.074 96.824 206.603 97.816 208.174 98.808 210.034 99.304 212.183 99.304 214.291 99.304 216.11 98.808 217.639 97.816 219.21 96.824 220.491 95.522 221.483 93.91 222.475 92.298 223.199 90.4587 223.653 88.392 224.149 86.3253 224.397 84.238 224.397 82.13 224.397 80.0633 224.149 78.0173 223.653 75.992 223.199 73.9253 222.475 72.086 221.483 70.474 220.491 68.862 219.231 67.56 217.701 66.568 216.172 65.5347 214.333 65.018 212.183 65.018Z" fill="#6F347D"/>
</svg>
